<?xml version="1.0" encoding="UTF-8"?>
<svg xmlns="http://www.w3.org/2000/svg" viewBox="-61.84 -36.84 361.68 361.68">
  <rect x="-61.84" y="-36.84" width="361.68" height="361.68" fill="#F2F1EE"/><path d="M1 9C2.19 9.04 6.06 9.01 8.13 9.26C10.19 9.51 11.58 9.79 13.38 10.52C15.19 11.25 17.2 12.37 18.95 13.64C20.7 14.92 22.71 16.24 23.87 18.18C25.03 20.12 25.42 16.07 25.9 25.31C26.38 34.54 26.62 42.4 26.76 73.59C26.9 104.78 26.92 181.19 26.74 212.44C26.56 243.7 26.29 251.62 25.69 261.11C25.08 270.6 24.33 267.22 23.11 269.38C21.89 271.55 19.92 272.9 18.37 274.1C16.82 275.29 15.37 275.94 13.81 276.53C12.24 277.12 10.62 277.07 8.98 277.64C7.35 278.22 4.83 279.61 4 280C7.71 280.09 13.08 280.55 26.25 280.55C39.42 280.55 73.54 280.09 83 280L82 278C81.24 277.96 78.8 277.96 77.44 277.76C76.08 277.55 75.01 277.22 73.84 276.76C72.67 276.29 71.41 275.61 70.44 274.98C69.46 274.36 68.41 273.33 68 273L67 273L66 272L66 271C65.67 270.59 64.64 270.25 64.02 268.55C63.39 266.85 62.68 271.34 62.26 260.81C61.84 250.28 61.51 246.99 61.47 205.35C61.43 163.72 61.91 43.39 62 11C72.29 11.04 109.88 11.04 123.75 11.24C137.61 11.45 140.21 11.77 145.2 12.24C150.19 12.72 151.02 13.32 153.68 14.08C156.35 14.85 158.4 15.61 161.19 16.85C163.98 18.09 167.71 19.88 170.41 21.52C173.11 23.17 174.77 24.38 177.36 26.71C179.95 29.03 183.44 32.56 185.95 35.47C188.47 38.38 190.65 41.25 192.45 44.18C194.24 47.1 195.51 49.99 196.72 53.03C197.94 56.08 198.92 58.82 199.72 62.46C200.52 66.1 201.18 69.92 201.51 74.88C201.84 79.84 201.88 87.59 201.71 92.25C201.53 96.91 201.21 99.35 200.48 102.84C199.75 106.34 198.7 109.71 197.32 113.21C195.94 116.7 194.16 120.55 192.22 123.81C190.28 127.07 188.62 129.42 185.68 132.77C182.74 136.11 177.97 140.86 174.56 143.91C171.14 146.95 168.51 148.9 165.21 151.04C161.91 153.18 158.36 155.01 154.76 156.76C151.16 158.51 147.17 160.17 143.61 161.53C140.05 162.9 136.94 163.91 133.41 164.95C129.88 165.99 125.92 166.96 122.44 167.76C118.95 168.56 115.53 169.24 112.5 169.74C109.47 170.24 106.84 170.55 104.26 170.76C101.68 170.97 98.21 170.96 97 171L95 173C97.87 173.09 107.13 173.58 112.24 173.53C117.35 173.48 121 173.2 125.64 172.71C130.29 172.21 135.13 171.44 140.14 170.58C145.14 169.73 151.5 168.48 155.67 167.58C159.83 166.67 161.57 166.24 165.13 165.16C168.7 164.09 173.26 162.54 177.05 161.14C180.85 159.74 184.44 158.35 187.92 156.76C191.39 155.16 194.75 153.45 197.92 151.58C201.09 149.72 204.29 147.5 206.94 145.56C209.58 143.62 211.37 142.19 213.77 139.92C216.17 137.65 219.09 134.67 221.34 131.97C223.59 129.26 225.69 126.15 227.25 123.7C228.82 121.24 229.77 119.26 230.72 117.26C231.68 115.26 232.28 113.79 232.98 111.72C233.69 109.65 234.38 107.96 234.97 104.84C235.55 101.72 236.26 97.97 236.51 93.02C236.77 88.07 236.79 80.11 236.5 75.16C236.2 70.2 235.5 66.72 234.74 63.3C233.98 59.89 233 57.27 231.95 54.64C230.9 52.02 230.02 50.11 228.43 47.53C226.84 44.95 225.09 42.22 222.42 39.15C219.74 36.08 215.7 32.01 212.37 29.11C209.04 26.22 205.57 23.77 202.45 21.76C199.33 19.76 196.58 18.47 193.65 17.08C190.71 15.7 187.55 14.46 184.84 13.45C182.13 12.44 180.72 11.78 177.4 11.02C174.07 10.25 174.44 9.49 164.88 8.88C155.32 8.26 147.37 7.32 120.05 7.34C92.74 7.36 20.84 8.72 1 9Z" fill="#1A1A18" fill-rule="evenodd"/>
</svg>
